<svg height="1788" viewBox="-82.88 -78.94 310.899 325.78" width="2500" xmlns="http://www.w3.org/2000/svg"><path d="m221.2 145.479c-27.178 1.942-33.245-11.405-38.583-26.935-3.864-11.24-8.25-25.398-10.224-32.22 12.49-19.179 26.968-42.207 48.524-76.25h-40.333c-7.171 11.244-14.254 22.63-21.264 33.766-2.002-5.605-4.76-11.64-7.964-16.77-9.282-14.382-23.88-24.282-45.636-22.95-28.76 1.762-50.485 15.544-68.021 33.08-16.08 16.077-31.763 39.56-33.547 66.158-2.387 35.606 23.625 56 53.114 58.237 23.304 1.769 40.755-4.426 55.443-12.113 9.97-5.217 31.185-22.894 37.534-30.775 4.712 21.849 16.872 42.787 44.264 42.787 16.977 0 27.73-9.32 33.512-16.522-2.076.16-4.332.328-6.82.506zm-130.854-13.234c-6.291 4.558-14.36 9.4-22.83 10.716-21.063 3.27-30.352-13.083-28.886-34.944 1.144-17.068 7.915-32.88 15.84-46.59 8.124-14.053 17.609-26.505 28.422-34.01 3.86-2.683 9.66-5.878 17.704-6.524 19.358-1.554 26.482 19.39 31.407 36.94 2.3 8.236 3.849 16.614 4.596 21.02-5.52 8.103-22.655 36.294-46.253 53.392z" fill="#e94e09"/><path d="m-55.88 246.84h-27m27-325.78h-27" fill="none" stroke="#fff" stroke-width=".5"/></svg>