<?xml version="1.0" encoding="utf-8"?>
<!-- Generator: Adobe Illustrator 22.1.0, SVG Export Plug-In . SVG Version: 6.00 Build 0)  -->
<svg version="1.1" id="Layer_1" xmlns="http://www.w3.org/2000/svg" xmlns:xlink="http://www.w3.org/1999/xlink" x="0px" y="0px"
	 viewBox="0 0 2433.6 1406" style="enable-background:new 0 0 2433.6 1406;" xml:space="preserve">
<style type="text/css">
	.st0{fill:#414042;}
</style>
<g>
	<path class="st0" d="M1781.7,1021.2l179.5-745.9h-385.4L1411.6,944c-23.8,130.4-164,191.5-263.3,193.1H875L782.4,1406h574
		C1497.9,1406,1706.9,1333.6,1781.7,1021.2"/>
	<path class="st0" d="M972.5,758.2L1153.7,0h396.8l-206.3,862.3c-39.7,166.5-163.4,206.4-277.8,206.4H152.2
		C51.5,1068.9-33,1026,12.7,833.9l82.4-343.9c41.7-174.6,171.4-214.4,265.3-214.4h638.1l-51.5,215H621.3c-47.9,0-74.1,10.1-87.7,66
		l-52.4,219.7c-18.8,78.8,8.8,84.2,66.6,84.2h298.5C900.9,860.6,948.9,857.2,972.5,758.2 M2048.4,275.3l-186.7,793.4H2247
		l186.7-793.4L2048.4,275.3z"/>
</g>
</svg>
