<svg height="1842" viewBox="72.7 75.7 753.9 526" width="2500" xmlns="http://www.w3.org/2000/svg"><path d="m313.7 77.1c-.9.5-4.4 1.5-7.7 2-5.9 1.1-8.7 2.9-7.5 4.9.3.5 1.9 1 3.4 1 4.9 0 5.3 1.7 3 12.1-1.1 5.2-2.2 10.7-2.5 12.4-.3 1.6-1.2 5.7-1.9 9-.8 3.3-2.1 9.4-3 13.5-3.4 16-7.3 32.4-9.2 39.3-1.1 4-1.3 6.1-.6 6.8 1.1 1.1 6.9.4 9.2-1 1-.7 3.9-11.3 5.6-21.1.3-1.9 2.1-5.3 4.1-7.4 4.1-4.7 4.8-4.3 8.3 4.9 7.3 19.4 12.7 27.3 17.9 26 4-.9 6.6-2.9 10.8-8 2.8-3.5 3.4-4.9 2.6-5.7-.9-.9-1.9-.7-3.9.8-6.4 4.7-8 3.5-14.2-9.6-8.1-17.4-9.1-21.3-6-24.3 6.7-6.5 10-8.2 17.3-8.7 6.6-.5 7.1-.7 8-3.3 1.6-4.3-.2-6.2-5.7-6.1-5.9 0-11.7 4-25 17-5.4 5.2-10.1 9.3-10.4 9s-.1-2.5.5-4.8c1-4.2 2.4-10.1 5.7-24.8 1.8-8.2 3.5-15.8 6-26.3.8-3.7 1.3-7.2 1-7.8-.8-1.2-3.5-1.1-5.8.2zm323.3 6.4c-5.8.8-13.6 2.2-17.5 3.1-7.8 1.9-26.5 7.8-29.2 9.3-1 .6-4.9 2.5-8.8 4.4-3.8 1.9-8.6 4.4-10.5 5.6-1.9 1.1-4.2 2.4-5 2.8-2.3 1-17.3 12.5-18.7 14.3-3.3 4.2.1 4 6.9-.4 13.5-8.5 26.6-14.4 45.8-20.4 13-4.1 24.6-5.5 46-5.5 18.4-.1 23 .2 32 2.1 13.5 2.9 19.1 4.4 27.6 7.6 54.8 21.1 92.3 65.2 101.5 119.6 4.6 27.8-.1 61.7-11.7 84.2-3.7 7 .1 7.9 4.4 1 12.3-19.3 21.2-50.6 21.2-74.9 0-13.3-3.3-32.4-8-46.3-9-26.7-23-47.5-44.9-66.7-11.6-10.1-20.4-16-34.6-23-3.8-1.8-7.8-3.8-8.8-4.4-2.2-1.2-20.8-7.2-27.2-8.8-17.8-4.4-43.7-5.9-60.5-3.6zm-481.8 3.2c.2 1 1.2 1.9 2.3 2.1s3.4 1.1 5.2 1.9c5.4 2.5 6.1 7.4 2.8 21.8-.7 3.3-2.1 9.6-3 14-4.5 22.2-8.4 38.4-10.2 41.8-.9 1.9-3.2 3.6-6.4 4.9-2.7 1.1-4.9 2.7-4.9 3.4 0 1.1 3.1 1.4 16.1 1.4 14.4 0 16-.2 15.7-1.7-.2-.9-2.1-2.2-4.3-3-4.9-1.6-6.5-3.6-6.5-8.1 0-4.9 2.3-18.4 6.6-38.7.8-3.9 1.4-7.7 1.4-8.6 0-3.1 3.1-12 4.1-11.7.6.2 2.4 2.8 4.1 5.8 1.6 3 4 7.3 5.3 9.5 1.2 2.2 3.4 6 4.7 8.5 7.4 13.3 9.3 16.7 11.9 21.2 1.6 2.7 2.9 5.1 2.9 5.3 0 .3 2 3.9 4.5 8.1 2.5 4.1 4.5 7.9 4.5 8.2.1.4 1.1 2 2.4 3.6 2.4 2.9 5.2 3.1 6 .4.5-1.6 3-14.5 5.2-25.8.8-4.7 2.2-11.4 2.9-15s2.1-10.6 3-15.5c2.6-14.2 5.2-24.2 7-26.9.9-1.4 3.7-3.3 6.1-4.2s4.4-2.3 4.4-3.1c0-1.1-2.8-1.3-15.7-1.1-9.4.2-15.8.7-15.7 1.3.1 1 .7 1.3 6.6 3.8 6 2.6 6 3.6-.2 37.2-1.2 6-2.6 13.9-3.1 17.5-1.6 9.7-3.9 12.7-5.8 7.7-.5-1.2-2.1-3.9-3.5-6s-2.6-4-2.6-4.3c0-.2-2-3.7-4.3-7.7-2.4-3.9-4.7-7.9-5.1-8.7-.3-.8-1.5-2.9-2.6-4.5-1.1-1.7-2.3-3.7-2.7-4.5s-4-7.1-8-13.9c-4-6.7-7.3-12.6-7.3-13s-1-1.7-2.3-2.9c-2.1-2-3.4-2.2-12.1-2.2s-9.7.2-9.4 1.7zm113.7.8c-4.5 2.4-4.6 12.3-.2 12.7 6.3.5 9.3-1.9 9.3-7.5 0-6-3.7-8.2-9.1-5.2zm-4.2 28.4c-5 2.5-13.5 9.1-14.2 10.9-1.2 3.1 1.3 3.4 4.9.7 1.9-1.5 4-2.4 4.6-2 1.3.8.7 6-1.6 14-4.4 16-6.8 26.7-7.2 32.2-.3 5.4-.1 6.3 1.7 7.3 1.8.9 3 .6 7.3-1.7 7.2-3.9 15.6-11.9 14-13.5-.8-.8-2.1-.5-5.1 1.5-2.2 1.5-4.5 2.7-5.1 2.7-1.4 0-1.2-4.5.4-10.4.8-2.8 2.2-8 3.1-11.6s2.2-8.8 3-11.5c3.1-11.7 3.8-17.4 2.5-19-1.7-2-3.8-1.9-8.3.4zm121.6-1c-4.8 1.2-11.6 5.6-16.6 10.6-12.8 12.8-16.4 38.2-6.7 48.3 4.8 5.1 11.1 6.9 18.4 5.3 13.8-3.1 23.4-11.8 29.3-26.4 3.4-8.6 3.7-23.2.5-29.4-3.3-6.3-7.4-8.7-15.2-9-3.6-.1-7.9.2-9.7.6zm10.5 7.5 3.7 3.4.3 10.6c.5 14.7-3.3 26.2-10.8 33-5.2 4.7-8.4 5.4-12.9 3-6-3.2-7.3-7.1-6.8-19.9s2.8-19.9 8.5-26.6c6.5-7.5 12.3-8.7 18-3.5zm41.5-6.2c-5.1 2.8-12.3 9.4-12.3 11.3 0 2.5 1.6 2.5 5 0 6.3-4.6 7.2-3.1 4.4 7.8-.8 3.4-2.2 8.7-2.9 11.7-5.6 22-7.4 30.5-6.6 31.3 1.1 1.1 8.5-.8 9.8-2.6.9-1.1 2.5-7.1 4.4-16.6 1.4-6.9 6.3-14.4 16.2-24.5 9.5-9.8 13.8-12.6 16.3-10.5 1.9 1.6 1.3 5.5-4.1 26.9-.8 3-2.1 8.4-3 12-2.1 8.2-1.7 13.8 1.1 15.6 1.8 1.2 2.6 1.1 7.1-1.3 6.6-3.3 13.8-10.5 12.9-12.8-.6-1.5-.9-1.6-2.9-.3-8.1 5.3-8.6 5.1-6.8-3 1.9-8.8 4.1-18.1 5.7-24.7.9-3.3 1.8-9 2.1-12.6.7-8.4-.9-10.4-7.5-9.6-5.7.6-13.6 6-23.4 16.1-4.3 4.4-7.8 7.6-7.9 7-.3-2.4.4-7.4 1.7-12.4 1.8-6.8 1.8-7.5-.2-9.4-2.1-2.2-4.2-2-9.1.6z"/><path d="m620 123.4c-8 1.3-17.3 4.3-25.5 8.3-23.7 11.4-43.1 33.9-50.4 58.6-3.7 12.4-5.4 23.7-4.8 32.7 1.4 20.4 7.6 38 18.6 53.3 1.9 2.6 3.8 4.7 4.2 4.7 2.3 0 1.5-3-3-12.4-2.8-5.6-5.1-11.1-5.1-12 0-1-.5-2.7-1.1-3.8-1.6-2.9-3.9-18.9-3.9-26.3 0-6.8 2.1-20.5 4.3-28.1 5.2-17.9 20.1-38.4 36.3-50 5.8-4.2 19-10.7 25.9-12.9 22.3-7 48.9-5.5 68.7 3.9 8.4 4 13.2 3.1 7.1-1.2-18.9-13.2-45.9-18.8-71.3-14.8z"/><path d="m674 163.7c-2.4.8-6.5 1.8-9 2.2-3.7.5-4.6 1-4.8 2.9-.3 1.9.1 2.2 3.1 2.2 6.3 0 6.6 2.1 3.1 19.5-.8 3.8-2.1 10.6-3 15s-2.2 10.7-2.9 14c-.8 3.3-2.1 9.3-3 13.2-.8 4-2.2 10.6-3 14.5-.9 4-2.2 10-3 13.3-2.7 11.6-2.8 12.5-1 13.1.9.4 3.8-.2 6.3-1.2 5-2.1 5.1-2.4 8.2-20.1.6-3.5 1.6-7.5 2.2-9 3.4-7.8 19.9-25.3 27.6-29.2s8.6-.6 4.6 16.9c-.8 3.6-2.1 9.2-2.9 12.5-.7 3.3-2.1 8.9-3 12.5s-1.5 9-1.3 12c.3 5.4.4 5.5 3.5 5.8 4.1.4 9.6-2.4 16.1-8.3 7.3-6.6 7-11.6-.4-6-3.3 2.6-5.9 3.2-6.8 1.7-.5-.9 4.1-21.8 7-32 .8-2.9 1.8-9.3 2.1-14.1.5-8.1.4-9-1.6-11-2.8-2.8-5.1-2.7-12.1.8-7.5 3.7-15.1 9.4-22 16.5-3 3.1-5.8 5.6-6.2 5.6-1.2 0-.9-4.4.7-11.8 2.2-9.6 4.2-18.5 6.1-27.7.9-4.4 2.3-10.3 3-13.2.8-2.8 1.4-6.7 1.4-8.7 0-3.1-.3-3.6-2.2-3.6-1.3.1-4.3.8-6.8 1.7z"/><path d="m733.5 167c-1 1.6.6 3.5 7.5 8.7 21.6 16.5 28.9 31.4 27.7 56.3-.7 15.3-4 25.7-12.2 38.4-9.2 14.4-31.1 28.7-55.5 36.4-14.5 4.5-20.1 5.4-38.2 5.9-23.4.7-42.5-1.8-77.3-10.2-18.3-4.4-50.6-15.4-60.6-20.5-.9-.5-5.8-2.6-11-4.9-5.2-2.2-15.7-7.1-23.4-10.9s-15.9-7.7-18.2-8.8c-2.3-1-4.3-2.6-4.3-3.5 0-2.1 7.5-10.8 17.7-20.5 4.7-4.5 8.3-8.6 7.9-9.2s-2.3-.4-5.3.6c-7.7 2.5-19.7 7.4-21.4 8.9-.8.7-1.8 1.3-2.2 1.3-.5 0-9.7 6.1-14.9 9.9-1.7 1.2-3.4.8-15.6-4.3-7.5-3.2-15.5-6.5-17.7-7.3s-5.1-2-6.5-2.5c-5.3-2.1-22.8-7.6-29-9.1-25.9-6.2-46.2-5.5-65.8 2.4-13.9 5.5-22.7 11.3-36 23.5-12.6 11.6-23.5 25.5-33.9 42.9s-21 41.2-25.6 57.5c-5 17.4-5.1 18-5.1 38.5-.1 18.1.2 20.7 2.2 26.9 3.3 10.1 6.9 16.1 13.4 22.1 7.8 7.3 14.8 9.5 29.7 9.5 19.1 0 32.6-6.4 49.6-23.4 25-25 44.8-66.4 50.9-106.6 2.1-13.9 2.2-41.2.1-43-3.9-3.2-9 2.8-10 11.8-2 18.5-6.5 40.9-11 54.7-6.2 18.9-12.7 33.6-20.8 47-5.3 8.8-17.1 22.3-24.1 27.6-7.2 5.5-9.2 6.6-15.4 8.5-23.3 7-37.4-13.5-31.8-46.1 1.8-10.1 4-20 6.6-29 1.2-3.9 2.7-9.3 3.5-12.2.8-2.8 2.6-8.5 4.1-12.5 1.4-4 3.3-9.1 4.1-11.3 2.7-7.6 12.6-27 17.8-35.2 8.9-13.6 22.8-27.1 34.9-33.8 11.8-6.4 28.4-10.1 41.3-9.1 10.9.8 25.5 3.9 34.3 7.1 21.9 8.1 41 16.7 41 18.5 0 .8-4.9 6.9-8 10-1.7 1.7-9.6 12.7-14.3 20-9.1 14.1-16.6 29.1-25.3 51-2.7 6.7-7.1 22.6-8.8 31-3.3 17.2-1.6 41.9 3.9 54.4 4.2 9.8 11.8 18.1 19.6 21.5 16.3 7 38.1 4 55.5-7.5 19-12.6 37.8-38.1 51.4-69.9 4.9-11.3 11.9-33.5 12-37.7 0-2.9-4.9-7.8-7.9-7.8-2.9 0-7.1 3.6-7.1 6 0 .8-.6 3.2-1.4 5.5-.7 2.2-2.4 7.4-3.6 11.5-1.3 4.1-2.7 7.9-3.1 8.4-.5.6-.9 1.8-.9 2.7 0 1-.6 3-1.4 4.6-.8 1.5-3.5 7.3-6.2 12.8-11.8 24.6-25.7 41-41.8 49-5.9 3-7.9 3.5-14 3.5-6.3 0-7.6-.4-11.6-3.1-9.1-6.2-12-13.7-12-31.4 0-11.8 1.5-21.3 4.9-31.7.6-1.8 2.7-8 4.6-13.8 1.8-5.8 4.3-13 5.5-16s2.5-6.6 2.9-8c1-3.2 9.8-22.4 12.4-26.9 1-1.9 3-5.5 4.4-8 1.3-2.5 3.3-6 4.4-7.6 1-1.7 2.3-3.9 2.9-5 1.5-3.2 3.6-5.5 4.9-5.5.7 0 3.8 1.5 6.9 3.3s6.4 3.6 7.2 4 3.1 1.7 5 2.8c11.4 6.9 40.5 20.8 50 23.9 1.4.5 5 1.8 8 3 10.4 4 30.9 10.6 42 13.5 27.4 7.1 45.2 10 70 11.4 47.8 2.7 84.9-9.6 110.8-36.8 14.1-14.9 20.9-30.2 23-52.1 3-31.9-7.9-55.5-33.4-72.3-6.9-4.5-11.6-5.8-12.9-3.7z"/><path d="m624.9 185.3c-5.4 4.9-6.4 6.7-7.9 13.3-1.3 5.6-2.1 6.4-7.1 6.4-2.2 0-4.2.7-5.2 1.8-2.9 3.2-2.1 4.2 3.2 4.2 2.8 0 5.3.5 5.6 1.1.4.5 0 3.8-.8 7.2s-2.2 9.3-3 13.2c-.9 3.8-2.3 10.1-3.2 13.9-2.2 9.3-3 21.4-1.6 24.8.9 2.3 1.6 2.8 4.7 2.8 7.1 0 25.2-14.1 22.4-17.5-.9-1.1-2.1-.6-6.8 2.6-7.9 5.5-9.7 4.8-8.8-3.5.4-3.4 1.3-8.4 2-11.1.8-2.8 2.1-8.8 3.1-13.5.9-4.7 2.4-11 3.3-14l1.7-5.5 6.6-.3c5.5-.2 7-.7 8.9-2.7 2.8-3 2.1-3.3-7-3.7l-6.5-.3.3-4.5c.2-2.5.9-6.7 1.7-9.4 1.8-6.1 1.9-9.6.3-9.6-.7.1-3.4 2-5.9 4.3zm-403.9 41.6c-1.9 1.1-19.4 7.1-24 8.2-1.9.5-6.4 1.5-10 2.4s-9.9 2.3-14 3.1-8.5 1.7-9.7 2c-3.2.6-5.3 3.2-5.3 6.3v2.8l11.5.5c9.3.3 11.8.8 13.5 2.3 2.5 2.2 2.7 7.7.4 13.7-2.5 6.9-4.6 12.1-5.9 15.3-.7 1.6-2 4.8-2.8 7-4 10.3-11.2 28.7-13.9 35.5-1.6 4.1-3.6 9.2-4.4 11.2-2.6 7.1-4.7 12.3-5.9 15.3-1.2 2.8-2.2 5.3-5.9 15.2-.8 2.1-2.8 7.2-4.4 11.3-1.7 4.1-5.2 12.9-7.7 19.5-11.4 29.3-14.2 32.4-32.7 35.6-6.1 1-11.4 1.9-11.9 1.9-1.3 0-4.1 6-3.5 7.6.5 1.2 7.7 1.4 45 1.4h44.5l2-2.9c3.1-4.3 2.7-5.9-1.6-6.6-22.3-3.5-24.5-5-22.8-15.8.7-3.9 1.3-5.6 5.1-14.5.8-1.8 1.4-3.9 1.4-4.7 0-.7.6-2.6 1.4-4.2.8-1.5 2.1-4.6 3-6.8.8-2.2 3.5-9.2 5.9-15.5 2.5-6.3 5.7-14.7 7.2-18.5 1.5-3.9 4.2-10.8 6-15.5s4.9-12.8 6.9-18 4.1-10.4 4.5-11.5c1.1-2.5 3.9-9.8 5.6-14.5.7-1.9 2.7-6.9 4.3-11 1.7-4.1 5.1-12.9 7.7-19.5 2.5-6.6 5.3-13.6 6-15.5.8-1.9 3-7.7 5-12.8 4-10.4 3.8-12.8-.5-10.3zm129.4 227c-3.9 2.4-5.7 7.1-4.3 10.9 1.3 3.4 2.6 4.2 7.1 4.2 3.2 0 4.1-.5 6.3-3.7 3.2-4.8 3.2-6.8-.4-10.4-3.5-3.4-4.5-3.5-8.7-1zm-236.6 32.4c-24.6 8.6-41.1 32.7-39.6 57.9.6 9.8 2.6 14.3 7.4 16.5 3.2 1.6 3.5 1.5 9.6-1.5 6.2-3 19.9-15.2 24.5-21.7 3.4-4.7 4.5-2.3 2.8 6-2.1 9.8-1.9 14.8.4 16.9 1.9 1.7 2.2 1.7 7.3-.6 9.1-4.2 20.1-14.9 18.3-17.8-1.1-1.7-2.6-1.1-6.7 2.6-8.6 7.7-8.7 3.6-.8-32.6 6-27.7 5.9-24.6 1.4-26-8-2.3-17.4-2.2-24.6.3zm11.2 6.6c1.8.5 2.6 1.5 2.8 3.4.3 2.7-3.1 18.1-5.1 22.7-1.8 3.9-11.9 17-17.3 22.2-9.5 9.1-12.7 10.6-15.5 7.1-2-2.3-1.5-19.7.6-27.1 4.2-13.9 12.1-25.1 19.7-27.9 3.6-1.3 10.8-1.5 14.8-.4zm46.8-5.6c-6.5 3.7-14.8 11.2-14.8 13.3 0 2.6 2.9 2.6 6.1 0 6-5.1 7.7-3.1 5.4 6.2-.9 3.7-2.3 9.4-3 12.7-2.6 11.1-4.7 20-6 24.5-4.6 16.6-4.4 18.2 2.7 16 5.2-1.6 7.8-3.7 7.8-6.1 0-4.7 5.9-25.6 7.7-27 .7-.6 1.3-1.6 1.3-2.1 0-2.5 19.7-23.7 25.2-27.1 3.6-2.3 7.5-2.2 8.2.1.6 1.8-.4 8.8-2.5 16.6-1.1 4.2-2.7 10.6-5.2 21.1-2.8 11.3-4 19.2-3.3 21.8 1 4 3.7 5 8.2 3.1 7.1-3 18.4-12.5 18.4-15.5 0-3.3-2.1-3.1-6.7.5-2.5 1.9-5 3.3-5.4 3-1.3-.8-1.1-5.4.5-10.5.7-2.4 2.1-7.8 3-11.9 1-4.1 2.3-10 3.1-13 2.3-9.2 3.7-19.9 3.1-22.6-.9-3.4-4.1-6.4-6.8-6.4-3.3.1-13.9 5.8-19.4 10.5-5.3 4.5-16.5 15.9-17.7 18.1-.4.8-1.2 1.4-1.7 1.4-1.5 0-1.2-4.2.6-9.1 2.1-6.1 2.4-18.6.4-19.9-2.2-1.4-3-1.3-9.2 2.3zm86.5-.4c-7.2 4-16.5 12-16.1 14 .5 2.5 3.3 2.4 6.6-.4 1.6-1.4 3.8-2.5 4.7-2.5 1.5 0 1.7.7 1.1 5.2-.4 2.9-1.3 7.8-2.1 10.8-.7 3-2.1 8.6-3 12.5-1.6 6.9-2.9 12.4-5.9 24.1-1.8 6.9-2 10.4-.6 10.4.5 0 3-.6 5.6-1.2 5.1-1.4 6.7-3.6 7.9-10.3 1.1-6.5 4.3-18.2 5.5-20.5 4.3-8.1 18.8-24.7 26.4-30.2 4.3-3.1 9.3-3.7 10.3-1.2.5 1.4-2.3 14.4-7.2 33.4-.7 3-2.1 8.2-2.9 11.6-.9 3.3-1.6 8.4-1.6 11.2 0 4.4.4 5.4 2.5 6.8 2.3 1.5 2.7 1.4 8.2-1.5 7-3.8 16.3-11.9 16.3-14.3 0-3.1-2.1-3-6.1.2-5.3 4.2-7.4 3.5-6.5-2.3.6-4 4.9-22.4 8.1-34.9.8-3.2 1.5-8.9 1.5-12.8 0-5.7-.4-7.4-2-9-2.6-2.6-4.6-2.5-11.1.4-6.9 3-14.5 8.9-24 18.8-8.3 8.6-10.2 9.6-8.8 4.5 4.2-15.4 4.7-20.1 2.3-23.5-2-2.8-2.8-2.8-9.1.7zm87.1 0c-7.3 4-17.4 12-17.4 13.7 0 2.6 2.6 2.6 6.5 0 4.4-3 6.5-3.3 6.5-.9 0 1.6-2.4 11.8-9.6 40.6-3.1 12.6-3.2 19.2-.3 20.8 1.8.9 3.2.6 8.3-2 7.9-4.1 16.6-11.8 16.6-14.9 0-3-1.8-2.7-6 .8-5.5 4.8-8.5 3.7-6.9-2.5 1.2-4.9 4-15.6 5.4-21 .8-2.8 2.1-8.2 3-12 .9-3.9 2-8.4 2.5-10 2.1-6.8 2.3-12.1.5-13.8-2.2-2.3-3.1-2.1-9.1 1.2zm35.4.4c-6 4.2-12.8 12-12.8 14.5 0 3.5 1.8 3.4 5.5-.3 4-3.9 6-4.4 7.4-1.6 1.2 2.1 1.5 5.6 3.7 37.6.8 12.6 1.9 23.4 2.4 23.8 2.1 2.2 8.8-5.4 30.8-35 12.9-17.5 16.3-23.6 16.9-30.3.5-5 .2-5.9-2.2-8.8-3.2-3.8-5.7-4-9.1-.7-2.3 2.3-2.4 2.8-1.8 10.8.6 7.9.5 8.6-2.5 14.7-2.8 5.6-6.3 11.2-16 25.2-2.8 4-4.9 5.4-6.3 4-.4-.4-1.2-10.9-1.7-23.2-1-22.8-1.9-28.4-5.3-32-2.5-2.7-3.7-2.5-9 1.3zm88-1c-8.2 3.5-13.8 7-18.2 11.5-4.3 4.5-5.2 5.9-9.9 15.7-6.1 12.4-7 31.1-2 39.5 2 3.5 8.2 7.7 12.5 8.5s13.8-1.4 20.6-4.9c5.6-2.8 16.2-12.1 16.2-14.1 0-3-2.3-2.4-9.6 2.4-8 5.3-13.6 6.9-19.8 5.7-5.7-1.1-9.6-7.7-9.6-16.5 0-5.2 1.7-8.1 4.9-8.1 2.6 0 12.8-3.8 21.7-8 17.6-8.5 22.9-21.6 12.2-30.3-5.1-4.1-11.4-4.6-19-1.4zm7.2 6.2c3.8 2 5.5 7.4 3.6 11.9-2 4.7-6.3 8.4-14.1 12-12.6 6-16.3 5.7-14.2-.8 3.9-12.2 8.3-18.6 15.1-22.1 5.9-2.9 5.8-2.9 9.6-1zm45.3-6.5c-7.9 4.2-17.3 12.5-17.3 15.2 0 2.6 2.3 2.2 7.4-1.3 2.5-1.7 5-2.7 5.6-2.4 1.4.9 1.3 4.5-.4 11.8-.8 3.4-2.2 9.8-3.1 14.2-2.1 10.5-4.5 20.8-6.1 26.9-1.7 6-1.8 10.6-.3 10.6 1.9 0 9.3-2.3 10.6-3.3.7-.4 1.7-3.4 2.3-6.5s1.7-8.5 2.5-11.9 1.5-7.1 1.5-8.2c0-4.5 12.8-27.2 17.5-31.1 1.8-1.5 7.3-1.6 8.7-.2 1.9 1.9 4 1.4 7-1.5 2.1-2 2.8-3.6 2.8-6.4 0-3.2-.5-4.1-3.4-5.8-4.4-2.7-5.5-2.7-10.3.8-3.8 2.8-13.3 14-13.3 15.8 0 .4-1.2 1.9-2.7 3.3l-2.6 2.5.7-3c.3-1.7.9-6.4 1.2-10.5.6-6.4.4-7.9-1-9.3-2.1-2-3.1-2-7.3.3zm65.7-.2c-9.8 3.7-16.6 10-19.5 18.3-2.9 8 .9 14.5 15.8 27.2 7.9 6.7 9.5 13.7 4.2 18.7s-14.2 3.2-21.4-4.4c-1.9-2-4.1-3.6-4.8-3.6-2.3 0-6.3 4.7-6.3 7.4 0 4 5.2 9 11.4 11.1 5.2 1.8 5.7 1.8 11.6.2 13.7-3.9 24-14.5 24-25 0-5.6-3.2-10.1-12.7-18.1-9.2-7.5-11.6-10.9-11.6-15.8 0-8.9 9-11.8 17.3-5.6 2.4 1.8 4.9 3.7 5.6 4.3.9.6 2.1.2 3.9-1.5 4.6-4.3 2.5-10.6-4.6-13.4-4.8-2-7.1-1.9-12.9.2zm69.8.1c-8.9 2.9-17.9 8.5-24.6 15.3-3.4 3.4-6.2 6.6-6.2 7.2 0 .5-.6 1.7-1.4 2.5-.7.9-2.9 5.4-4.7 10.1-3.2 8-3.4 9.2-3.4 20.5 0 11.7.1 12.1 2.9 15.8 4 5.3 6.5 5.6 14 1.8 6.3-3.2 18.5-14.1 24-21.4 4-5.3 5.4-3.6 3.2 4.1-1.7 6.3-2.1 15.8-.7 18.1.5.7 2 1.3 3.4 1.3 6.1 0 22.7-13 22.7-17.9 0-3.1-1.8-2.9-6 .7-1.9 1.7-4.5 3-5.8 3-2.2 0-2.4-.3-1.8-3.3.4-1.7 1.4-6.8 2.2-11.2 2.8-14.8 3.3-17 4.8-23.5 5.4-23.6 5.6-21.9-3.2-23.8-7.3-1.6-12.7-1.4-19.4.7zm10.2 7c2.1.6 2.5 1.3 2.4 4.2-.1 5.3-3.1 17.7-5.6 22.8-5.1 10.7-23.6 30.1-28.8 30.1-3.5 0-5-3.3-5-10.8 0-20.8 10.8-42.6 22.9-46.2 3.2-1 10.7-1 14.1-.1zm47-6.8c-4.4 2.3-15 10.8-16.4 13.1-.7 1.2-.6 2.1.3 3.2 1.1 1.3 1.8 1.1 6.1-2 7.5-5.4 7.9-3.9 4.1 14.8-1.7 8.4-3.7 18.2-4.5 21.8-3.3 14-4.6 20.6-4.6 22.2 0 2.2 2.1 2.3 7.4.4 4.5-1.6 6.6-3.9 6.6-7.4 0-2.4 1.8-11.3 4.7-23.2 1.7-6.7 9.1-20.1 14.7-26.6 2.6-3 3.9-3.7 6.5-3.6 1.9 0 3.9.6 4.4 1.1 1.9 1.9 4.5 1.2 7.1-2 3.4-4 3.4-8.1-.1-11.4-1.5-1.4-3.7-2.5-4.9-2.5-4.4 0-15.6 10.7-20 19.2-.8 1.5-1.9 2.8-2.4 2.8s-.8-4.4-.7-10c.2-8-.1-10.3-1.3-11-2-1.3-2.9-1.2-7 1.1zm58.5-.2c-6.8 4.4-14.5 13.4-14.5 17 0 3.2 2.2 2.5 6.5-1.9 4.9-5 7.1-4.2 8 2.8.3 2.6 1.2 9 2 14.2s2 17 2.6 26.2l1.3 16.7-2.9 3.8c-5.2 6.9-19.9 21.4-27.8 27.5-8.7 6.6-9.8 9.5-3.7 9 6.6-.5 13.4-3.3 16.8-7 7.3-7.7 35.7-47.2 45.9-63.8 17.4-28.3 19.9-35.2 15.6-42.5-2.1-3.5-4.8-4.5-7.8-2.9-3.9 2.1-5 5.2-3.5 10.5.7 2.5 1 6 .7 7.9-.9 5.8-5.8 16.7-12.3 27.7-9.5 16-11.4 16.6-11.4 3.6 0-10.6-2.8-35.7-4.8-42.5-1.4-4.9-4.1-8.2-6.7-8.2-.5 0-2.3.9-4 1.9z"/></svg>