<svg xmlns="http://www.w3.org/2000/svg" width="2500" height="2500" viewBox="0 0 192.756 192.756"><g fill-rule="evenodd" clip-rule="evenodd"><path fill="#fff" d="M0 0h192.756v192.756H0V0z"/><path d="M145.391 95.659c-1.291-3.3-4.412-5.846-7.748-6.671-9.145-2.439-20.73-1.47-27.043 6.169-3.658 4.698-5.809 11.764-3.084 17.718 1.328 3.479 5.021 5.989 8.5 6.635 7.676 1.004 17.574 1.435 23.744-4.196 5.773-4.806 7.711-12.84 5.631-19.655zm-18.936 14.131c-.861.322-2.26.466-3.049-.144-1.83-1.005-1.221-3.264-1.006-4.771.861-2.798 1.83-6.743 5.309-7.281 1.143-.111 2.582.395 3.049 1.722.322 4.053-.842 8.175-4.303 10.474zM43.253 72.648l-6.456 18.725-4.908-18.725H18.847L2.834 118.361h15.238l6.07-17.432 4.52 17.432h13.817l16.012-45.713H43.253zM68.521 86.286c2.69-.395 5.523-1.255 6.994-3.91 1.076-2.116.682-4.663-.609-6.527-2.08-2.188-4.95-2.403-7.998-2.224-2.798.395-5.631 1.793-6.635 4.698-.466 1.829-.359 4.053.861 5.523 1.792 2.189 4.698 2.511 7.387 2.44zM57.421 89.348L47.22 118.403h14.463l10.201-29.055H57.421z"/><path d="M113.359 89.307H96.572l-8.394 9.813 9.168-26.472H82.625l-16.012 45.713h14.721l4.132-11.492 2.325 11.492h15.367l-2.584-13.946 12.785-15.108zM179.461 88.96c-6.455 0-10.717 2.841-12.912 4.778l1.678-4.391H152.99l-10.203 29.055h15.238l4.908-13.946c.773-2.195 2.064-3.229 4.26-3.229s2.713 2.195 2.066 4.003l-4.648 13.172h14.721l6.586-18.854c1.809-5.165 0-10.588-6.457-10.588zM186.891 112.316a3.037 3.037 0 0 0-3.047 3.03 3.042 3.042 0 0 0 3.047 3.048 3.035 3.035 0 0 0 3.031-3.048 3.03 3.03 0 0 0-3.031-3.03zm0 5.712a2.671 2.671 0 0 1-2.674-2.682 2.667 2.667 0 0 1 2.674-2.665 2.665 2.665 0 0 1 2.664 2.665 2.669 2.669 0 0 1-2.664 2.682z"/><path d="M188.451 114.552c0-.287-.129-.589-.383-.732-.254-.151-.541-.167-.826-.167h-1.48v3.397h.414v-1.567h.764l.971 1.567h.492l-1.025-1.567c.602-.016 1.073-.263 1.073-.931zm-1.64.6h-.635v-1.201h.971c.42 0 .883.063.883.589-.001.691-.741.612-1.219.612z"/></g></svg>